<?xml version="1.0" standalone="no"?>
<!DOCTYPE svg PUBLIC "-//W3C//DTD SVG 20010904//EN"
 "http://www.w3.org/TR/2001/REC-SVG-20010904/DTD/svg10.dtd">
<svg version="1.0" xmlns="http://www.w3.org/2000/svg"
 width="16.000000pt" height="16.000000pt" viewBox="0 0 16.000000 16.000000"
 preserveAspectRatio="xMidYMid meet">
<metadata>
Created by potrace 1.11, written by Peter Selinger 2001-2013
</metadata>
<g transform="translate(0.000000,16.000000) scale(0.006751,-0.006751)"
fill="#000000" stroke="none">
<path d="M741 1904 c-169 -45 -301 -180 -346 -351 -22 -84 -22 -683 0 -768 45
-172 179 -305 352 -350 84 -22 683 -22 768 0 171 45 308 177 351 338 20 78 20
701 -1 781 -45 173 -178 306 -352 351 -81 21 -692 21 -772 -1z m439 -284 c50
-26 73 -60 74 -114 1 -56 -24 -92 -74 -106 -60 -16 -105 6 -130 65 -21 48 -30
54 -50 30 -18 -22 -34 -3 -26 29 8 33 35 34 74 1 37 -31 87 -34 102 -6 26 50
-7 91 -75 91 -60 0 -103 -19 -142 -63 -40 -46 -57 -97 -57 -172 0 -94 59 -183
146 -219 55 -23 62 -20 39 18 -27 43 -27 88 0 112 19 17 35 19 162 16 78 -1
159 -5 179 -8 60 -9 59 -48 -4 -80 -29 -15 -37 -39 -15 -47 6 -3 2 -6 -9 -6
-33 -1 -51 26 -35 51 22 36 -6 51 -101 55 -95 5 -114 -3 -104 -41 12 -50 105
-75 127 -34 11 21 12 21 25 3 8 -10 14 -29 14 -42 0 -15 16 -35 53 -62 81 -63
100 -97 105 -197 4 -66 1 -93 -13 -124 -28 -62 -59 -72 -207 -68 -147 4 -170
14 -202 90 -27 65 -16 130 30 176 33 33 36 34 99 30 54 -3 69 -8 94 -32 16
-16 34 -25 40 -22 13 8 15 -23 2 -42 -10 -16 -34 -17 -108 -7 -45 7 -54 5 -59
-10 -5 -11 2 -26 19 -43 21 -20 38 -27 85 -30 76 -5 117 14 130 62 14 49 4 80
-40 130 -48 55 -63 60 -118 41 -54 -19 -172 -19 -236 0 -60 18 -114 70 -144
140 -19 43 -21 64 -17 150 4 113 23 167 78 230 47 53 99 75 182 75 49 0 79 -6
107 -20z"/>
</g>
</svg>
